<svg id="rutgers-logo" xmlns="http://www.w3.org/2000/svg" width="146.35pt" height="146.35pt" viewBox="0 0 100 128.35" version="1.1">
  <defs>
    <style>.rutgers-logo__white {
        fill: #fff;
      }

      .rutgers-logo__primary {
        fill: #e31837;
      }

      .rutgers-logo__secondary {
        fill: #231f20;
      }</style>
  </defs>
  <title>Rutgers University Logo</title>
  <g id="ru-shield">
    <path class="rutgers-logo__white" d="M0,0V75.72C.28,88.39,4.42,99.3,12.29,108.16c14,15.76,35.24,19.67,37.61,20.06l.33.06.47.07.47-.07c.95-.14,23.36-3.58,38-20.13a47.31,47.31,0,0,0,8-12.43,52.26,52.26,0,0,0,4.25-20V0Z"></path>
    <path class="rutgers-logo__primary" d="M65.83,5.51H57.76l-.88,22.21.71.14Z"></path>
    <polygon class="rutgers-logo__primary" points="78.99 33.93 95.93 21.62 95.93 6.54 76 33.93 78.99 33.93"></polygon>
    <path class="rutgers-logo__primary" d="M69.55,33,94.91,5.51H81.43l-12.49,27Z"></path>
    <path class="rutgers-logo__primary" d="M63.82,29.82,78.71,5.51H68.93l-5.78,24Z"></path>
    <polygon class="rutgers-logo__primary" points="95.93 33.93 95.93 25.3 86.58 33.93 95.93 33.93"></polygon>
    <path class="rutgers-logo__primary" d="M50.7,27.16h.42L54.54,5.51H47L50.4,27.16Z"></path>
    <path class="rutgers-logo__primary" d="M44.62,27.72,43.74,5.51H35.67l8.24,22.35Z"></path>
    <polygon class="rutgers-logo__primary" points="25.49 33.93 5.57 6.54 5.57 21.62 22.51 33.93 25.49 33.93"></polygon>
    <path class="rutgers-logo__primary" d="M32.56,32.55l-12.49-27H6.58L32,33Z"></path>
    <path class="rutgers-logo__primary" d="M38.35,29.54l-5.78-24H22.79L37.68,29.82Z"></path>
    <polygon class="rutgers-logo__primary" points="5.57 25.3 5.57 33.93 14.91 33.93 5.57 25.3"></polygon>
    <path id="shield-outline" class="rutgers-logo__primary" d="M0,0V75.72C.28,88.39,4.42,99.3,12.29,108.16c14,15.76,35.24,19.67,37.61,20.06l.33.06.47.07.47-.07c.95-.14,23.36-3.58,38-20.13a47.31,47.31,0,0,0,8-12.43,52.26,52.26,0,0,0,4.25-20V0ZM98.83,75.66a49.88,49.88,0,0,1-4,19,45.1,45.1,0,0,1-7.55,11.76c-14.06,15.87-35.54,19.15-36.45,19.28h-.19l-.28,0c-2.28-.37-22.67-4.13-36.1-19.23C6.77,98.06,2.85,87.7,2.58,75.65V2.58H98.83Z"></path>
    <polygon class="rutgers-logo__primary" points="23.66 67.44 23.66 70.17 26.33 70.17 26.33 67.67 26.31 67.44 23.66 67.44"></polygon>
    <path class="rutgers-logo__primary" d="M18.6,65.52l0,.17h7.66V56.84L26,57a5.08,5.08,0,0,1-1.66.36h-.44a9.07,9.07,0,0,1-3.84-.84l-.37-.18A3.17,3.17,0,0,0,18.39,56a3.23,3.23,0,0,0-3.23,3.23c0,1,.2,1.43,1.54,2.88A8.49,8.49,0,0,1,18.6,65.52Z"></path>
    <rect class="rutgers-logo__primary" x="33.33" y="67.44" width="2.67" height="2.73"></rect>
    <path class="rutgers-logo__primary" d="M5.58,75.73c.26,11.3,3.92,21,10.9,28.85C27.58,117.06,44,121.4,49.27,122.51V36.85H5.58ZM19.26,85.9H15v-.32l.83-.1c.55-.06.55-.18.55-1.53v-3.3c0-1.51-.09-1.63-.34-1.63a2,2,0,0,0-.42,0l-.83.14-.1-.33c.54-.21,2.79-1,3-1l.19.14v6c0,1.35,0,1.47.55,1.53l.83.1Zm19.5-11.61v.82H16v-.82ZM16,73.46v-.81H38.76v.81Zm8.44,9.29a14.88,14.88,0,0,0-1.23,3.43l-.13.09a2.83,2.83,0,0,1-1.27-.92c.14-.87,1.69-2.56,2.78-4.3a5.65,5.65,0,0,0,.82-1.86H23c-1.4,0-1.29,0-1.66,1l-.33-.1a5.35,5.35,0,0,1,.55-2h5l.12.13C26.37,79.43,25.79,80,24.44,82.75Zm6.1,3.34c-1.51,0-2.78-1.09-2.78-3.39,0-3.39,2.23-4.87,4.25-4.87a3.32,3.32,0,0,1,1.21.22l-.1.35a2.8,2.8,0,0,0-.81-.1c-1.7,0-3,1.41-3,4.24,0,1.79.51,3.08,1.58,3.08.82,0,1.14-.86,1.14-1.64,0-1.21-.69-2.27-1.66-2.27l-.32,0L30,81.51a2,2,0,0,1,3.35,1.58A2.71,2.71,0,0,1,30.54,86.09Zm6.89,0c-1.5,0-2.77-1.09-2.77-3.39,0-3.39,2.22-4.87,4.25-4.87a3.25,3.25,0,0,1,1.2.22l-.1.35a2.67,2.67,0,0,0-.8-.1c-1.7,0-3,1.41-3,4.24,0,1.79.51,3.08,1.57,3.08.83,0,1.14-.86,1.14-1.64,0-1.21-.68-2.27-1.65-2.27l-.32,0-.05-.22a2,2,0,0,1,3.35,1.58A2.71,2.71,0,0,1,37.43,86.09Zm-10-37.81a2,2,0,1,1-2,2A2,2,0,0,1,27.41,48.28Zm-9,5.38a5.67,5.67,0,0,1,2.35.51l.33.17a6.7,6.7,0,0,0,2.82.62h.33a3.09,3.09,0,0,0,2.55-1.67h1.32A3.12,3.12,0,0,0,30.65,55H31a6.69,6.69,0,0,0,2.63-.54,4.88,4.88,0,0,1,.65-.32,5.57,5.57,0,0,1,2.17-.44,5.66,5.66,0,0,1,5.65,5.66A6.7,6.7,0,0,1,40,63.76a.43.43,0,0,0-.09.1A6,6,0,0,0,38.37,67a4.19,4.19,0,0,0-.07.63v.69a6.14,6.14,0,0,0,.47,2V71.7H16V70.43A6.13,6.13,0,0,0,16.52,68a5.86,5.86,0,0,0-.07-.94,6.07,6.07,0,0,0-1.52-3.18l-.1-.11a6.56,6.56,0,0,1-2.09-4.42A5.67,5.67,0,0,1,18.39,53.66Z"></path>
    <rect class="rutgers-logo__primary" x="18.82" y="67.44" width="2.67" height="2.73"></rect>
    <path class="rutgers-logo__primary" d="M36.21,65.52a8.45,8.45,0,0,1,1.9-3.36c.16-.19,1.55-1.86,1.55-2.89A3.23,3.23,0,0,0,36.43,56a3.09,3.09,0,0,0-1.24.25l-.37.18-.29.15a9.18,9.18,0,0,1-3.55.71h-.49A5.69,5.69,0,0,1,28.83,57l-.31-.12v8.86h7.64Z"></path>
    <rect class="rutgers-logo__primary" x="28.5" y="67.44" width="2.67" height="2.73"></rect>
    <path class="rutgers-logo__primary" d="M66.31,70.6a8.88,8.88,0,0,0,1.37-.21,5.91,5.91,0,0,1,1.26-.17,5.71,5.71,0,0,1,2.37.5v-1a6.74,6.74,0,0,0-2.38-.43,6.9,6.9,0,0,0-1.44.19,10.14,10.14,0,0,1-1.25.19A8.46,8.46,0,0,1,64,69.49v1A9,9,0,0,0,66.31,70.6Z"></path>
    <path class="rutgers-logo__primary" d="M66.31,68a8.88,8.88,0,0,0,1.37-.21,5.93,5.93,0,0,1,1.26-.16,5.69,5.69,0,0,1,2.37.49v-1a6.54,6.54,0,0,0-2.38-.44,6.9,6.9,0,0,0-1.44.19,10.14,10.14,0,0,1-1.25.19A8.06,8.06,0,0,1,64,66.9v1A9,9,0,0,0,66.31,68Z"></path>
    <path class="rutgers-logo__primary" d="M66.31,65.42a10.53,10.53,0,0,0,1.37-.2,5.91,5.91,0,0,1,1.26-.17,5.56,5.56,0,0,1,2.37.5v-1a6.13,6.13,0,0,0-2.38-.43,6.34,6.34,0,0,0-1.44.18,7.37,7.37,0,0,1-1.25.19A7.7,7.7,0,0,1,64,64.31v1A8.56,8.56,0,0,0,66.31,65.42Z"></path>
    <path class="rutgers-logo__primary" d="M66.31,60.25A8.88,8.88,0,0,0,67.68,60a5.91,5.91,0,0,1,1.26-.17,5.71,5.71,0,0,1,2.37.5v-1a6.52,6.52,0,0,0-2.38-.43,6.9,6.9,0,0,0-1.44.19,10.14,10.14,0,0,1-1.25.19A8.46,8.46,0,0,1,64,59.14v1A9,9,0,0,0,66.31,60.25Z"></path>
    <path class="rutgers-logo__primary" d="M66.31,62.84a10.3,10.3,0,0,0,1.37-.21,5.91,5.91,0,0,1,1.26-.17,5.71,5.71,0,0,1,2.37.5v-1a6.32,6.32,0,0,0-2.38-.43,7.72,7.72,0,0,0-1.44.18,7.37,7.37,0,0,1-1.25.19A7.7,7.7,0,0,1,64,61.72v1A9,9,0,0,0,66.31,62.84Z"></path>
    <path class="rutgers-logo__primary" d="M66.31,57.66a8.88,8.88,0,0,0,1.37-.21,5.93,5.93,0,0,1,1.26-.16,5.69,5.69,0,0,1,2.37.49v-1a6.54,6.54,0,0,0-2.38-.44,6.9,6.9,0,0,0-1.44.19,10.14,10.14,0,0,1-1.25.19A8.06,8.06,0,0,1,64,56.55v1A9,9,0,0,0,66.31,57.66Z"></path>
    <path class="rutgers-logo__primary" d="M66.59,74.14a9.09,9.09,0,0,1,6.23.76v-.78L72.58,74A6.8,6.8,0,0,0,69,73h-.21l-.51,0a13,13,0,0,0-1.58.18,12.51,12.51,0,0,1-4.9-.25l-.32-.07V55.4l-.83-.22V73.54A13.09,13.09,0,0,0,66.59,74.14Z"></path>
    <path class="rutgers-logo__primary" d="M66.59,75.84a9.15,9.15,0,0,1,6.23.76v-.76l-.11-.07a.56.56,0,0,1-.13-.07,8.21,8.21,0,0,0-5.85-.76,14.24,14.24,0,0,1-6.58-.7l-.29-.09V55.91c-.27-.09-.54-.17-.81-.27V74.71C62.1,75.82,64.63,76.21,66.59,75.84Z"></path>
    <path class="rutgers-logo__primary" d="M80.52,67.8a8.72,8.72,0,0,0,3.68.07v-1a8.06,8.06,0,0,1-2.24.16,10.14,10.14,0,0,1-1.25-.19,6.9,6.9,0,0,0-1.44-.19,6.54,6.54,0,0,0-2.38.44v1a5.69,5.69,0,0,1,2.37-.49A5.93,5.93,0,0,1,80.52,67.8Z"></path>
    <path class="rutgers-logo__primary" d="M81.62,74.14a13.06,13.06,0,0,0,5.9-.6V55.18l-.83.22V72.91l-.32.07a12.51,12.51,0,0,1-4.9.25,13,13,0,0,0-1.58-.18l-.51,0h-.21a6.8,6.8,0,0,0-3.55.95l-.24.13v.78A9.11,9.11,0,0,1,81.62,74.14Z"></path>
    <path class="rutgers-logo__primary" d="M80.52,65.22a10.53,10.53,0,0,0,1.37.2,8.53,8.53,0,0,0,2.31-.14v-1a7.7,7.7,0,0,1-2.24.16,7.37,7.37,0,0,1-1.25-.19,6.34,6.34,0,0,0-1.44-.18,6.13,6.13,0,0,0-2.38.43v1a5.56,5.56,0,0,1,2.37-.5A5.91,5.91,0,0,1,80.52,65.22Z"></path>
    <path class="rutgers-logo__primary" d="M52.18,122.51c5.26-1.11,21.69-5.45,32.79-17.93C92,96.74,95.61,87,95.87,75.73V36.85H52.18ZM67.71,83.73,66,82.85l-1.68.88.32-1.87-1.35-1.33,1.87-.27.84-1.7.84,1.7,1.88.27-1.36,1.33Zm16.14,0-1.68-.88-1.68.88.32-1.87-1.36-1.33,1.88-.27.84-1.7.84,1.7,1.88.27-1.36,1.33ZM74.57,71.36V55.24A9,9,0,0,1,76,54.4a8.27,8.27,0,0,1,3.42-.68,11.87,11.87,0,0,1,2.24.22,9.17,9.17,0,0,0,.95.11,13.35,13.35,0,0,0,3.62-.36l.5-.11v1c.36-.09.73-.19,1.12-.31l.53-.16v1l1.08-.39.55-.2V75.28l-.26.1c-3.32,1.24-6.09,1.67-8.24,1.26a8.35,8.35,0,0,0-5.73.7H74.57Zm.37,11.2,1.88.27-1.36,1.33L75.78,86l-1.68-.88L72.42,86l.32-1.87-1.36-1.33,1.88-.27.84-1.7ZM58.23,54.47l.55.2,1.08.39v-1l.53.16c.39.12.76.22,1.12.31v-1l.5.11a13.35,13.35,0,0,0,3.62.36c.33,0,.65-.06,1-.11a11.69,11.69,0,0,1,2.23-.22,8.24,8.24,0,0,1,3.42.68,8.56,8.56,0,0,1,1.39.84v22.1H72.46a8.35,8.35,0,0,0-5.73-.7c-2.15.41-4.92,0-8.23-1.26l-.27-.1Z"></path>
    <path class="rutgers-logo__primary" d="M81.62,75.84c1.95.37,4.48,0,7.53-1.13V55.64l-.81.27V74.15l-.29.09a14.24,14.24,0,0,1-6.58.7,8.21,8.21,0,0,0-5.85.76.56.56,0,0,1-.13.07l-.11.07v.76A9.17,9.17,0,0,1,81.62,75.84Z"></path>
    <path class="rutgers-logo__primary" d="M80.52,70.39a8.55,8.55,0,0,0,3.68.06v-1a8.46,8.46,0,0,1-2.24.16,10.14,10.14,0,0,1-1.25-.19,6.9,6.9,0,0,0-1.44-.19,6.74,6.74,0,0,0-2.38.43v1a5.71,5.71,0,0,1,2.37-.5A5.91,5.91,0,0,1,80.52,70.39Z"></path>
    <path class="rutgers-logo__primary" d="M80.52,60a8.55,8.55,0,0,0,3.68.06v-1A8.46,8.46,0,0,1,82,59.3a10.14,10.14,0,0,1-1.25-.19,6.9,6.9,0,0,0-1.44-.19,6.52,6.52,0,0,0-2.38.43v1a5.71,5.71,0,0,1,2.37-.5A5.91,5.91,0,0,1,80.52,60Z"></path>
    <path class="rutgers-logo__primary" d="M80.52,57.45a8.72,8.72,0,0,0,3.68.07v-1a8.06,8.06,0,0,1-2.24.16,10.14,10.14,0,0,1-1.25-.19,6.9,6.9,0,0,0-1.44-.19,6.54,6.54,0,0,0-2.38.44v1a5.69,5.69,0,0,1,2.37-.49A5.93,5.93,0,0,1,80.52,57.45Z"></path>
    <path class="rutgers-logo__primary" d="M80.52,62.63a10.3,10.3,0,0,0,1.37.21,9,9,0,0,0,2.31-.15v-1a7.7,7.7,0,0,1-2.24.16,7.37,7.37,0,0,1-1.25-.19,7.72,7.72,0,0,0-1.44-.18,6.32,6.32,0,0,0-2.38.43v1a5.71,5.71,0,0,1,2.37-.5A5.91,5.91,0,0,1,80.52,62.63Z"></path>
  </g>
  
</svg>